<svg width="59" height="27" viewBox="0 0 59 27" fill="none" xmlns="http://www.w3.org/2000/svg">
<path d="M11.5127 0.799998V26H5.68067V5.48H0.640672V0.799998H11.5127ZM26.6903 26.432C24.6023 26.432 22.7423 25.916 21.1103 24.884C19.4783 23.852 18.1943 22.364 17.2583 20.42C16.3463 18.452 15.8903 16.112 15.8903 13.4C15.8903 10.688 16.3463 8.36 17.2583 6.416C18.1943 4.448 19.4783 2.948 21.1103 1.916C22.7423 0.883999 24.6023 0.368 26.6903 0.368C28.7783 0.368 30.6383 0.883999 32.2703 1.916C33.9023 2.948 35.1743 4.448 36.0863 6.416C37.0223 8.36 37.4903 10.688 37.4903 13.4C37.4903 16.112 37.0223 18.452 36.0863 20.42C35.1743 22.364 33.9023 23.852 32.2703 24.884C30.6383 25.916 28.7783 26.432 26.6903 26.432ZM26.6903 21.5C28.2263 21.5 29.4263 20.84 30.2903 19.52C31.1783 18.2 31.6223 16.16 31.6223 13.4C31.6223 10.64 31.1783 8.6 30.2903 7.28C29.4263 5.96 28.2263 5.3 26.6903 5.3C25.1783 5.3 23.9783 5.96 23.0903 7.28C22.2263 8.6 21.7943 10.64 21.7943 13.4C21.7943 16.16 22.2263 18.2 23.0903 19.52C23.9783 20.84 25.1783 21.5 26.6903 21.5ZM58.4285 15.596H52.1645V21.716H47.5205V15.596H41.2925V11.204H47.5205V5.084H52.1645V11.204H58.4285V15.596Z" fill="url(#paint0_linear_22721_7169)"/>
<defs>
<linearGradient id="paint0_linear_22721_7169" x1="0.476562" y1="3.32" x2="61.0722" y2="3.50965" gradientUnits="userSpaceOnUse">
<stop stop-color="#F0145A"/>
<stop offset="1" stop-color="#EF8080"/>
</linearGradient>
</defs>
</svg>
