<svg width="66" height="27" viewBox="0 0 66 27" fill="none" xmlns="http://www.w3.org/2000/svg">
<path d="M13.4612 11.06C15.6692 11.42 17.3612 12.248 18.5372 13.544C19.7132 14.816 20.3012 16.4 20.3012 18.296C20.3012 19.76 19.9172 21.116 19.1492 22.364C18.3812 23.588 17.2052 24.572 15.6212 25.316C14.0612 26.06 12.1412 26.432 9.86116 26.432C8.08516 26.432 6.33316 26.204 4.60516 25.748C2.90116 25.268 1.44916 24.596 0.249156 23.732L2.51716 19.268C3.47716 19.988 4.58116 20.552 5.82916 20.96C7.10116 21.344 8.39716 21.536 9.71716 21.536C11.1812 21.536 12.3332 21.26 13.1732 20.708C14.0132 20.132 14.4332 19.328 14.4332 18.296C14.4332 16.232 12.8612 15.2 9.71716 15.2H7.05316V11.348L12.2372 5.48H1.50916V0.799998H19.1492V4.58L13.4612 11.06ZM33.7938 26.432C31.7058 26.432 29.8458 25.916 28.2138 24.884C26.5818 23.852 25.2978 22.364 24.3618 20.42C23.4498 18.452 22.9938 16.112 22.9938 13.4C22.9938 10.688 23.4498 8.36 24.3618 6.416C25.2978 4.448 26.5818 2.948 28.2138 1.916C29.8458 0.883999 31.7058 0.368 33.7938 0.368C35.8818 0.368 37.7418 0.883999 39.3738 1.916C41.0058 2.948 42.2778 4.448 43.1898 6.416C44.1258 8.36 44.5938 10.688 44.5938 13.4C44.5938 16.112 44.1258 18.452 43.1898 20.42C42.2778 22.364 41.0058 23.852 39.3738 24.884C37.7418 25.916 35.8818 26.432 33.7938 26.432ZM33.7938 21.5C35.3298 21.5 36.5298 20.84 37.3938 19.52C38.2818 18.2 38.7258 16.16 38.7258 13.4C38.7258 10.64 38.2818 8.6 37.3938 7.28C36.5298 5.96 35.3298 5.3 33.7938 5.3C32.2818 5.3 31.0818 5.96 30.1938 7.28C29.3298 8.6 28.8978 10.64 28.8978 13.4C28.8978 16.16 29.3298 18.2 30.1938 19.52C31.0818 20.84 32.2818 21.5 33.7938 21.5ZM65.5321 15.596H59.2681V21.716H54.6241V15.596H48.3961V11.204H54.6241V5.084H59.2681V11.204H65.5321V15.596Z" fill="url(#paint0_linear_22721_7174)"/>
<defs>
<linearGradient id="paint0_linear_22721_7174" x1="0.53125" y1="3.32" x2="68.0803" y2="3.55568" gradientUnits="userSpaceOnUse">
<stop stop-color="#F0145A"/>
<stop offset="1" stop-color="#EF8080"/>
</linearGradient>
</defs>
</svg>
