<svg width="90" height="27" viewBox="0 0 90 27" fill="none" xmlns="http://www.w3.org/2000/svg">
<path d="M10.0596 10.268C13.6116 10.268 16.2276 10.976 17.9076 12.392C19.6116 13.808 20.4636 15.704 20.4636 18.08C20.4636 19.616 20.0796 21.02 19.3116 22.292C18.5436 23.54 17.3676 24.548 15.7836 25.316C14.2236 26.06 12.2916 26.432 9.98763 26.432C8.21163 26.432 6.45963 26.204 4.73163 25.748C3.02763 25.268 1.57563 24.596 0.375625 23.732L2.67963 19.268C3.63963 19.988 4.74363 20.552 5.99163 20.96C7.23963 21.344 8.52363 21.536 9.84363 21.536C11.3076 21.536 12.4596 21.248 13.2996 20.672C14.1396 20.096 14.5596 19.292 14.5596 18.26C14.5596 17.18 14.1156 16.364 13.2276 15.812C12.3636 15.26 10.8516 14.984 8.69163 14.984H2.24763L3.54363 0.799998H18.9156V5.48H8.40363L8.00763 10.268H10.0596ZM33.6298 26.432C31.5418 26.432 29.6818 25.916 28.0498 24.884C26.4178 23.852 25.1338 22.364 24.1978 20.42C23.2858 18.452 22.8298 16.112 22.8298 13.4C22.8298 10.688 23.2858 8.36 24.1978 6.416C25.1338 4.448 26.4178 2.948 28.0498 1.916C29.6818 0.883999 31.5418 0.368 33.6298 0.368C35.7178 0.368 37.5778 0.883999 39.2098 1.916C40.8418 2.948 42.1138 4.448 43.0258 6.416C43.9618 8.36 44.4298 10.688 44.4298 13.4C44.4298 16.112 43.9618 18.452 43.0258 20.42C42.1138 22.364 40.8418 23.852 39.2098 24.884C37.5778 25.916 35.7178 26.432 33.6298 26.432ZM33.6298 21.5C35.1658 21.5 36.3658 20.84 37.2298 19.52C38.1178 18.2 38.5618 16.16 38.5618 13.4C38.5618 10.64 38.1178 8.6 37.2298 7.28C36.3658 5.96 35.1658 5.3 33.6298 5.3C32.1178 5.3 30.9178 5.96 30.0298 7.28C29.1658 8.6 28.7338 10.64 28.7338 13.4C28.7338 16.16 29.1658 18.2 30.0298 19.52C30.9178 20.84 32.1178 21.5 33.6298 21.5ZM58.0634 26.432C55.9754 26.432 54.1154 25.916 52.4834 24.884C50.8514 23.852 49.5674 22.364 48.6314 20.42C47.7194 18.452 47.2634 16.112 47.2634 13.4C47.2634 10.688 47.7194 8.36 48.6314 6.416C49.5674 4.448 50.8514 2.948 52.4834 1.916C54.1154 0.883999 55.9754 0.368 58.0634 0.368C60.1514 0.368 62.0114 0.883999 63.6434 1.916C65.2754 2.948 66.5474 4.448 67.4594 6.416C68.3954 8.36 68.8634 10.688 68.8634 13.4C68.8634 16.112 68.3954 18.452 67.4594 20.42C66.5474 22.364 65.2754 23.852 63.6434 24.884C62.0114 25.916 60.1514 26.432 58.0634 26.432ZM58.0634 21.5C59.5994 21.5 60.7994 20.84 61.6634 19.52C62.5514 18.2 62.9954 16.16 62.9954 13.4C62.9954 10.64 62.5514 8.6 61.6634 7.28C60.7994 5.96 59.5994 5.3 58.0634 5.3C56.5514 5.3 55.3514 5.96 54.4634 7.28C53.5994 8.6 53.1674 10.64 53.1674 13.4C53.1674 16.16 53.5994 18.2 54.4634 19.52C55.3514 20.84 56.5514 21.5 58.0634 21.5ZM89.8016 15.596H83.5376V21.716H78.8936V15.596H72.6656V11.204H78.8936V5.084H83.5376V11.204H89.8016V15.596Z" fill="url(#paint0_linear_22721_7179)"/>
<defs>
<linearGradient id="paint0_linear_22721_7179" x1="0.71875" y1="3.32" x2="92.1077" y2="3.75139" gradientUnits="userSpaceOnUse">
<stop stop-color="#F0145A"/>
<stop offset="1" stop-color="#EF8080"/>
</linearGradient>
</defs>
</svg>
